<svg width="120" height="90" viewBox="0 0 120 90" fill="none" xmlns="http://www.w3.org/2000/svg">
<path d="M1 65.1191L2.78788 62.9576C4.57576 60.7962 8.15151 56.4733 11.7273 53.445C15.303 50.4166 18.8788 48.6829 22.4545 55.888C26.0303 63.0931 29.6061 79.237 33.1818 79.5255C36.7576 79.814 40.3333 64.2471 43.9091 55.0428C47.4848 45.8385 51.0606 42.9967 54.6364 39.3507C58.2121 35.7047 61.7879 31.2545 65.3636 27.6204C68.9394 23.9862 72.5152 21.1681 76.0909 29.1387C79.6667 37.1092 83.2424 55.8685 86.8182 56.053C90.3939 56.2376 93.9697 37.8474 97.5455 36.7125C101.121 35.5776 104.697 51.698 108.273 48.6218C111.848 45.5456 115.424 23.2728 117.212 12.1364L119 1" stroke="white"/>
<path d="M2.78788 63.3493L1 65.5244V90H119V1L117.212 12.2068C115.424 23.4136 111.848 45.8272 108.273 48.9228C104.697 52.0185 101.121 35.7962 97.5454 36.9383C93.9697 38.0803 90.3939 56.5868 86.8182 56.4011C83.2424 56.2154 79.6667 37.3375 76.0909 29.3165C72.5152 21.2956 68.9394 24.1315 65.3636 27.7887C61.7879 31.4458 58.2121 35.9241 54.6364 39.5931C51.0606 43.2622 47.4848 46.1219 43.9091 55.3844C40.3333 64.6469 36.7576 80.3122 33.1818 80.0219C29.6061 79.7316 26.0303 63.4856 22.4545 56.235C18.8788 48.9844 15.303 50.729 11.7273 53.7765C8.15151 56.824 4.57576 61.1742 2.78788 63.3493Z" fill="url(#paint0_linear_0_980)" fill-opacity="0.6"/>
<defs>
<linearGradient id="paint0_linear_0_980" x1="60" y1="4" x2="60" y2="75.5" gradientUnits="userSpaceOnUse">
<stop stop-color="white"/>
<stop offset="1" stop-color="white" stop-opacity="0"/>
</linearGradient>
</defs>
</svg>
