<svg width="30" height="30" viewBox="0 0 30 30" fill="none" xmlns="http://www.w3.org/2000/svg">
<path d="M11.875 21.875C11.7092 21.875 11.5503 21.9408 11.4331 22.0581C11.3158 22.1753 11.25 22.3342 11.25 22.5C11.25 22.6658 11.3158 22.8247 11.4331 22.9419C11.5503 23.0592 11.7092 23.125 11.875 23.125H18.125C18.2908 23.125 18.4497 23.0592 18.5669 22.9419C18.6842 22.8247 18.75 22.6658 18.75 22.5C18.75 22.3342 18.6842 22.1753 18.5669 22.0581C18.4497 21.9408 18.2908 21.875 18.125 21.875H11.875Z" fill="black"/>
<path fill-rule="evenodd" clip-rule="evenodd" d="M17.7113 3.21875C16.9391 2.60901 15.9839 2.27737 15 2.27737C14.0161 2.27737 13.0609 2.60901 12.2888 3.21875L4.16375 9.63375C3.6451 10.0433 3.22597 10.565 2.93782 11.1597C2.64967 11.7544 2.49998 12.4067 2.5 13.0675V23.125C2.5 24.2853 2.96094 25.3981 3.78141 26.2186C4.60188 27.0391 5.71468 27.5 6.875 27.5H23.125C24.2853 27.5 25.3981 27.0391 26.2186 26.2186C27.0391 25.3981 27.5 24.2853 27.5 23.125V13.0675C27.5 12.4067 27.3503 11.7544 27.0622 11.1597C26.774 10.565 26.3549 10.0433 25.8363 9.63375L17.7113 3.21875ZM13.0638 4.2C13.6153 3.76465 14.2974 3.52786 15 3.52786C15.7026 3.52786 16.3847 3.76465 16.9363 4.2L25.0613 10.615C25.4318 10.9075 25.7312 11.2801 25.9371 11.7048C26.143 12.1296 26.2499 12.5955 26.25 13.0675V23.125C26.25 23.9538 25.9208 24.7487 25.3347 25.3347C24.7487 25.9208 23.9538 26.25 23.125 26.25H6.875C6.0462 26.25 5.25134 25.9208 4.66529 25.3347C4.07924 24.7487 3.75 23.9538 3.75 23.125V13.0675C3.74991 12.5956 3.8567 12.1298 4.06237 11.705C4.26803 11.2802 4.56723 10.9076 4.9375 10.615L13.0638 4.2Z" fill="black"/>
</svg>
